<mxfile host="app.diagrams.net" modified="2022-11-22T09:57:48.686Z" agent="5.0 (Windows NT 10.0; Win64; x64) AppleWebKit/537.36 (KHTML, like Gecko) Chrome/107.0.0.0 Safari/537.36 Edg/107.0.1418.52" etag="v7v0mryy68JIfe49dI3-" version="20.5.3" type="github">
  <diagram id="EdVVnSpUKDNpsXRbQZlX" name="第 1 页">
    <mxGraphModel dx="1375" dy="754" grid="1" gridSize="10" guides="1" tooltips="1" connect="1" arrows="1" fold="1" page="1" pageScale="1" pageWidth="827" pageHeight="1169" math="0" shadow="0">
      <root>
        <mxCell id="0" />
        <mxCell id="1" parent="0" />
        <mxCell id="8oeglLmzysRH4-Na7aNM-22" style="edgeStyle=orthogonalEdgeStyle;rounded=0;orthogonalLoop=1;jettySize=auto;html=1;fontSize=20;" edge="1" parent="1" source="8oeglLmzysRH4-Na7aNM-6" target="8oeglLmzysRH4-Na7aNM-16">
          <mxGeometry relative="1" as="geometry">
            <Array as="points">
              <mxPoint x="410" y="70" />
              <mxPoint x="120" y="70" />
            </Array>
          </mxGeometry>
        </mxCell>
        <mxCell id="8oeglLmzysRH4-Na7aNM-28" style="edgeStyle=orthogonalEdgeStyle;rounded=0;orthogonalLoop=1;jettySize=auto;html=1;fontSize=20;" edge="1" parent="1" source="8oeglLmzysRH4-Na7aNM-6" target="8oeglLmzysRH4-Na7aNM-18">
          <mxGeometry relative="1" as="geometry" />
        </mxCell>
        <mxCell id="8oeglLmzysRH4-Na7aNM-36" style="edgeStyle=orthogonalEdgeStyle;rounded=0;orthogonalLoop=1;jettySize=auto;html=1;fontSize=20;" edge="1" parent="1" source="8oeglLmzysRH4-Na7aNM-6" target="8oeglLmzysRH4-Na7aNM-17">
          <mxGeometry relative="1" as="geometry">
            <Array as="points">
              <mxPoint x="410" y="70" />
              <mxPoint x="735" y="70" />
            </Array>
          </mxGeometry>
        </mxCell>
        <mxCell id="8oeglLmzysRH4-Na7aNM-6" value="&lt;font style=&quot;font-size: 22px;&quot;&gt;水流对石斑鱼幼鱼的影响研究&lt;/font&gt;" style="rounded=1;whiteSpace=wrap;html=1;fontSize=22;" vertex="1" parent="1">
          <mxGeometry x="255.5" y="10" width="309" height="50" as="geometry" />
        </mxCell>
        <mxCell id="8oeglLmzysRH4-Na7aNM-21" style="edgeStyle=orthogonalEdgeStyle;rounded=0;orthogonalLoop=1;jettySize=auto;html=1;entryX=0.5;entryY=0;entryDx=0;entryDy=0;fontSize=20;" edge="1" parent="1" source="8oeglLmzysRH4-Na7aNM-16" target="8oeglLmzysRH4-Na7aNM-19">
          <mxGeometry relative="1" as="geometry" />
        </mxCell>
        <mxCell id="8oeglLmzysRH4-Na7aNM-16" value="游泳轨迹" style="rounded=1;whiteSpace=wrap;html=1;fontSize=20;" vertex="1" parent="1">
          <mxGeometry x="60" y="90" width="110" height="30" as="geometry" />
        </mxCell>
        <mxCell id="8oeglLmzysRH4-Na7aNM-37" style="edgeStyle=orthogonalEdgeStyle;rounded=0;orthogonalLoop=1;jettySize=auto;html=1;entryX=0.5;entryY=0;entryDx=0;entryDy=0;fontSize=20;" edge="1" parent="1" source="8oeglLmzysRH4-Na7aNM-17" target="8oeglLmzysRH4-Na7aNM-35">
          <mxGeometry relative="1" as="geometry" />
        </mxCell>
        <mxCell id="8oeglLmzysRH4-Na7aNM-17" value="幼鱼生长" style="rounded=1;whiteSpace=wrap;html=1;fontSize=20;" vertex="1" parent="1">
          <mxGeometry x="680" y="90" width="110" height="30" as="geometry" />
        </mxCell>
        <mxCell id="8oeglLmzysRH4-Na7aNM-29" style="edgeStyle=orthogonalEdgeStyle;rounded=0;orthogonalLoop=1;jettySize=auto;html=1;fontSize=20;" edge="1" parent="1" source="8oeglLmzysRH4-Na7aNM-18" target="8oeglLmzysRH4-Na7aNM-20">
          <mxGeometry relative="1" as="geometry">
            <Array as="points">
              <mxPoint x="410" y="130" />
              <mxPoint x="285" y="130" />
            </Array>
          </mxGeometry>
        </mxCell>
        <mxCell id="8oeglLmzysRH4-Na7aNM-30" style="edgeStyle=orthogonalEdgeStyle;rounded=0;orthogonalLoop=1;jettySize=auto;html=1;entryX=0.5;entryY=0;entryDx=0;entryDy=0;fontSize=20;" edge="1" parent="1" source="8oeglLmzysRH4-Na7aNM-18" target="8oeglLmzysRH4-Na7aNM-23">
          <mxGeometry relative="1" as="geometry" />
        </mxCell>
        <mxCell id="8oeglLmzysRH4-Na7aNM-31" style="edgeStyle=orthogonalEdgeStyle;rounded=0;orthogonalLoop=1;jettySize=auto;html=1;entryX=0.5;entryY=0;entryDx=0;entryDy=0;fontSize=20;" edge="1" parent="1" source="8oeglLmzysRH4-Na7aNM-18" target="8oeglLmzysRH4-Na7aNM-24">
          <mxGeometry relative="1" as="geometry">
            <Array as="points">
              <mxPoint x="410" y="130" />
              <mxPoint x="555" y="130" />
            </Array>
          </mxGeometry>
        </mxCell>
        <mxCell id="8oeglLmzysRH4-Na7aNM-18" value="生理生化" style="rounded=1;whiteSpace=wrap;html=1;fontSize=20;" vertex="1" parent="1">
          <mxGeometry x="355" y="90" width="110" height="30" as="geometry" />
        </mxCell>
        <mxCell id="8oeglLmzysRH4-Na7aNM-39" style="edgeStyle=orthogonalEdgeStyle;rounded=0;orthogonalLoop=1;jettySize=auto;html=1;fontSize=20;" edge="1" parent="1" source="8oeglLmzysRH4-Na7aNM-19" target="8oeglLmzysRH4-Na7aNM-38">
          <mxGeometry relative="1" as="geometry">
            <Array as="points">
              <mxPoint x="115" y="635" />
            </Array>
          </mxGeometry>
        </mxCell>
        <mxCell id="8oeglLmzysRH4-Na7aNM-19" value="YoloV5+Deepsort" style="rounded=1;whiteSpace=wrap;html=1;fontSize=20;" vertex="1" parent="1">
          <mxGeometry x="33.75" y="340" width="162.5" height="70" as="geometry" />
        </mxCell>
        <mxCell id="8oeglLmzysRH4-Na7aNM-32" style="edgeStyle=orthogonalEdgeStyle;rounded=0;orthogonalLoop=1;jettySize=auto;html=1;entryX=0.5;entryY=0;entryDx=0;entryDy=0;fontSize=20;" edge="1" parent="1" source="8oeglLmzysRH4-Na7aNM-20" target="8oeglLmzysRH4-Na7aNM-25">
          <mxGeometry relative="1" as="geometry" />
        </mxCell>
        <mxCell id="8oeglLmzysRH4-Na7aNM-20" value="血清生化" style="rounded=1;whiteSpace=wrap;html=1;fontSize=20;align=center;" vertex="1" parent="1">
          <mxGeometry x="240" y="160" width="90" height="40" as="geometry" />
        </mxCell>
        <mxCell id="8oeglLmzysRH4-Na7aNM-33" style="edgeStyle=orthogonalEdgeStyle;rounded=0;orthogonalLoop=1;jettySize=auto;html=1;fontSize=20;" edge="1" parent="1" source="8oeglLmzysRH4-Na7aNM-23" target="8oeglLmzysRH4-Na7aNM-26">
          <mxGeometry relative="1" as="geometry" />
        </mxCell>
        <mxCell id="8oeglLmzysRH4-Na7aNM-23" value="消化酶类" style="rounded=1;whiteSpace=wrap;html=1;fontSize=20;align=center;" vertex="1" parent="1">
          <mxGeometry x="365" y="160" width="90" height="40" as="geometry" />
        </mxCell>
        <mxCell id="8oeglLmzysRH4-Na7aNM-34" style="edgeStyle=orthogonalEdgeStyle;rounded=0;orthogonalLoop=1;jettySize=auto;html=1;fontSize=20;" edge="1" parent="1" source="8oeglLmzysRH4-Na7aNM-24" target="8oeglLmzysRH4-Na7aNM-27">
          <mxGeometry relative="1" as="geometry" />
        </mxCell>
        <mxCell id="8oeglLmzysRH4-Na7aNM-24" value="抗氧化酶类" style="rounded=1;whiteSpace=wrap;html=1;fontSize=20;align=center;" vertex="1" parent="1">
          <mxGeometry x="500" y="160" width="110" height="40" as="geometry" />
        </mxCell>
        <mxCell id="8oeglLmzysRH4-Na7aNM-41" style="edgeStyle=orthogonalEdgeStyle;rounded=0;orthogonalLoop=1;jettySize=auto;html=1;entryX=0.5;entryY=0;entryDx=0;entryDy=0;fontSize=20;" edge="1" parent="1" source="8oeglLmzysRH4-Na7aNM-25" target="8oeglLmzysRH4-Na7aNM-38">
          <mxGeometry relative="1" as="geometry" />
        </mxCell>
        <mxCell id="8oeglLmzysRH4-Na7aNM-25" value="高密度脂蛋白胆固醇、&lt;br&gt;低密度脂蛋白胆固醇、&lt;br&gt;皮质醇、&lt;br&gt;5-羟色胺" style="rounded=1;whiteSpace=wrap;html=1;fontSize=20;align=center;" vertex="1" parent="1">
          <mxGeometry x="230" y="230" width="110" height="340" as="geometry" />
        </mxCell>
        <mxCell id="8oeglLmzysRH4-Na7aNM-43" style="edgeStyle=orthogonalEdgeStyle;rounded=0;orthogonalLoop=1;jettySize=auto;html=1;fontSize=20;" edge="1" parent="1" source="8oeglLmzysRH4-Na7aNM-26" target="8oeglLmzysRH4-Na7aNM-38">
          <mxGeometry relative="1" as="geometry" />
        </mxCell>
        <mxCell id="8oeglLmzysRH4-Na7aNM-26" value="胰蛋白酶、&lt;br&gt;脂肪酶、&lt;br&gt;淀粉酶" style="rounded=1;whiteSpace=wrap;html=1;fontSize=20;align=center;" vertex="1" parent="1">
          <mxGeometry x="355" y="230" width="110" height="340" as="geometry" />
        </mxCell>
        <mxCell id="8oeglLmzysRH4-Na7aNM-42" style="edgeStyle=orthogonalEdgeStyle;rounded=0;orthogonalLoop=1;jettySize=auto;html=1;entryX=0.5;entryY=0;entryDx=0;entryDy=0;fontSize=20;" edge="1" parent="1" source="8oeglLmzysRH4-Na7aNM-27" target="8oeglLmzysRH4-Na7aNM-38">
          <mxGeometry relative="1" as="geometry" />
        </mxCell>
        <mxCell id="8oeglLmzysRH4-Na7aNM-27" value="超氧化物歧化酶、&lt;br&gt;丙二醛、&lt;br&gt;过氧化氢酶、&lt;br&gt;总抗氧化能力、&lt;br&gt;补体蛋白、&lt;br&gt;髓过氧化物酶、&lt;br&gt;免疫球蛋白、&lt;br&gt;溶菌酶" style="rounded=1;whiteSpace=wrap;html=1;fontSize=20;align=center;" vertex="1" parent="1">
          <mxGeometry x="480" y="230" width="150" height="340" as="geometry" />
        </mxCell>
        <mxCell id="8oeglLmzysRH4-Na7aNM-40" style="edgeStyle=orthogonalEdgeStyle;rounded=0;orthogonalLoop=1;jettySize=auto;html=1;fontSize=20;" edge="1" parent="1" source="8oeglLmzysRH4-Na7aNM-35" target="8oeglLmzysRH4-Na7aNM-38">
          <mxGeometry relative="1" as="geometry">
            <Array as="points">
              <mxPoint x="735" y="635" />
            </Array>
          </mxGeometry>
        </mxCell>
        <mxCell id="8oeglLmzysRH4-Na7aNM-35" value="&lt;span style=&quot;font-size: 14pt; font-family: 微软雅黑;&quot;&gt;肌肉&lt;/span&gt;&lt;span style=&quot;font-size: 14pt; font-family: 微软雅黑;&quot;&gt;和肝脏蛋白质含量、&lt;br&gt;增重率、&lt;br&gt;质量、&lt;br&gt;肥满度、&lt;br&gt;特定增长率&lt;/span&gt;" style="rounded=1;whiteSpace=wrap;html=1;fontSize=20;align=center;" vertex="1" parent="1">
          <mxGeometry x="675" y="180" width="120" height="250" as="geometry" />
        </mxCell>
        <mxCell id="8oeglLmzysRH4-Na7aNM-38" value="选择最适合水流速度并探究其影响规律及作用机理" style="rounded=1;whiteSpace=wrap;html=1;fontSize=22;" vertex="1" parent="1">
          <mxGeometry x="162.75" y="610" width="494.5" height="50" as="geometry" />
        </mxCell>
      </root>
    </mxGraphModel>
  </diagram>
</mxfile>
